<?xml version="1.0" encoding="UTF-8"?>
<svg width="105px" height="108px" viewBox="0 0 105 108" version="1.1" xmlns="http://www.w3.org/2000/svg" xmlns:xlink="http://www.w3.org/1999/xlink">
    <!-- Generator: Sketch 51.1 (57501) - http://www.bohemiancoding.com/sketch -->
    <title>Logo</title>
    <desc>Created with Sketch.</desc>
    <defs></defs>
    <g id="Page-1" stroke="none" stroke-width="1" fill="none" fill-rule="evenodd">
        <g id="Onboarding-1" transform="translate(-138.000000, -126.000000)" fill="#5EC49E">
            <g id="Group-2" transform="translate(70.000000, 70.000000)">
                <g id="Logo" transform="translate(68.469136, 56.775510)">
                    <path d="M0,7.65404727 L0,7.65404727 C-5.17684358e-16,3.42683369 3.42683369,2.55288338e-15 7.65404727,1.77635684e-15 L96.8655355,-1.77635684e-15 C101.092749,-2.55288338e-15 104.519583,3.42683369 104.519583,7.65404727 L104.519583,7.65404727 C104.519583,11.8812609 101.092749,15.3080945 96.8655355,15.3080945 L60.7343521,15.3080945 L51.3391119,98.9683829 C50.8268556,103.529789 46.9694435,106.978254 42.3793633,106.978254 L42.3793633,106.978254 C38.3550292,106.978254 35.092662,103.715886 35.092662,99.6915524 C35.092662,99.4468632 35.104987,99.2023294 35.1295903,98.9588803 L43.5834553,15.3080945 L7.65404727,15.3080945 C3.42683369,15.3080945 5.17684358e-16,11.8812609 0,7.65404727 Z" id="T"></path>
                </g>
            </g>
        </g>
    </g>
</svg>