<?xml version="1.0" encoding="UTF-8"?>
<svg width="100px" height="119px" viewBox="0 0 100 119" version="1.1" xmlns="http://www.w3.org/2000/svg" xmlns:xlink="http://www.w3.org/1999/xlink">
    <!-- Generator: Sketch 51.1 (57501) - http://www.bohemiancoding.com/sketch -->
    <title>man-user</title>
    <desc>Created with Sketch.</desc>
    <defs></defs>
    <g id="Page-1" stroke="none" stroke-width="1" fill="none" fill-rule="evenodd">
        <g id="Demographic-data-prompt" transform="translate(-136.000000, -100.000000)" fill="#5EC49E" fill-rule="nonzero">
            <g id="Group-2" transform="translate(70.000000, 52.000000)">
                <g id="man-user" transform="translate(66.000000, 48.000000)">
                    <path d="M47.6670356,59.5 C62.0256301,59.5 73.6666667,46.1806038 73.6666667,29.7501738 C73.6666667,13.3193962 69.8447434,0 47.6670356,0 C25.4893279,0 21.6666667,13.3193962 21.6666667,29.7501738 C21.6666667,46.1806038 33.3077032,59.5 47.6670356,59.5 Z" id="Shape"></path>
                    <path d="M0.015011107,103.0625 C0.002011107,100.995027 -0.010988893,102.479992 0.015011107,103.0625 Z" id="Shape"></path>
                    <path d="M99.6666667,104.125 C99.7078333,103.484554 99.68075,99.6816546 99.6666667,104.125 Z" id="Shape"></path>
                    <path d="M95.2799676,101.175906 C94.8125701,72.7343115 90.9609281,64.6300012 61.4869485,59.5 C61.4869485,59.5 57.3380345,64.598569 47.6677411,64.598569 C37.9974478,64.598569 33.8478175,59.5 33.8478175,59.5 C4.69546465,64.574045 0.609586639,72.5581534 0.0723481205,100.251939 C0.028294562,102.513326 0.00787949828,102.632146 0,102.369636 C0.00179079506,102.861497 0.00393974914,103.771302 0.00393974914,105.357762 C0.00393974914,105.357762 7.02099112,119 47.6677411,119 C88.3137748,119 95.3315425,105.357762 95.3315425,105.357762 C95.3315425,104.338462 95.3322589,103.629685 95.3333333,103.147495 C95.3254538,103.309837 95.3096948,102.99517 95.2799676,101.175906 Z" id="Shape"></path>
                </g>
            </g>
        </g>
    </g>
</svg>