<svg xmlns="http://www.w3.org/2000/svg" xmlns:xlink="http://www.w3.org/1999/xlink" width="30.16129035979486" height="26.935483932991247" version="1.1" style=""><rect id="backgroundrect" width="100%" height="100%" x="0" y="0" fill="none" stroke="none" class="selected" style=""/>
    <!-- Generator: Sketch 51.1 (57501) - http://www.bohemiancoding.com/sketch -->
    <title>Logo</title>
    <desc>Created with Sketch.</desc>
    <defs/>
    
<g class="currentLayer" style=""><title>Layer 1</title><g id="Page-1" stroke="none" stroke-width="1" fill="#393e4e" fill-rule="evenodd" class="" fill-opacity="0.76">
        <g id="Onboarding-1" fill="#393e4e" fill-opacity="1">
            <g id="Group-2" fill="#393e4e" fill-opacity="1">
                <g id="Logo" fill="#393e4e" fill-opacity="1">
                    <path d="M0.46913909912109375,1.737729850606581 L0.46913909912109375,1.737729850606581 C0.46913909912109375,0.7609189365815253 1.3841020669694961,-0.030942767491808375 2.512766085352567,-0.030942767491808375 L26.33219107679233,-0.030942767491808375 C27.460855073815438,-0.030942767491808375 28.375818124433696,0.7609189365815253 28.375818124433696,1.737729850606581 L28.375818124433696,1.737729850606581 C28.375818124433696,2.714540776185469 27.460855073815438,3.5064024594618934 26.33219107679233,3.5064024594618934 L16.685182267462288,3.5064024594618934 L14.176657595802299,22.83835274610992 C14.039885406969567,23.892387792472647 13.00995820813012,24.689247990067255 11.784408974530109,24.689247990067255 L11.784408974530109,24.689247990067255 C10.709913680960861,24.689247990067255 9.838863187838367,23.935390488510386 9.838863187838367,23.005460427546275 C9.838863187838367,22.948918434438827 9.842153956985303,22.892412350663417 9.848723026401348,22.836156915874245 L12.105900966714454,3.5064024594618934 L2.512766085352567,3.5064024594618934 C1.3841020669694961,3.5064024594618934 0.46913909912109375,2.714540776185469 0.46913909912109375,1.737729850606581 z" id="T" fill="#393e4e" fill-opacity="1"/>
                </g>
            </g>
        </g>
    </g></g></svg>