<?xml version="1.0" encoding="UTF-8"?>
<svg width="112px" height="114px" viewBox="0 0 112 114" version="1.1" xmlns="http://www.w3.org/2000/svg" xmlns:xlink="http://www.w3.org/1999/xlink">
    <!-- Generator: Sketch 51.1 (57501) - http://www.bohemiancoding.com/sketch -->
    <title>Shape</title>
    <desc>Created with Sketch.</desc>
    <defs></defs>
    <g id="Page-1" stroke="none" stroke-width="1" fill="none" fill-rule="evenodd">
        <g id="Onboarding-3" transform="translate(-135.000000, -120.000000)" fill="#5EC49E" fill-rule="nonzero">
            <g id="Group-2" transform="translate(73.000000, 70.000000)">
                <path d="M137.666667,80.4319728 C137.666667,82.2662585 136.220395,83.707483 134.379685,83.707483 L132.801934,83.707483 L129.646432,83.707483 L109.135669,83.707483 L106.637563,83.707483 L104.533895,83.707483 C102.693185,83.707483 101.246914,82.2662585 101.246914,80.4319728 C101.246914,78.5976871 102.693185,77.1564626 104.533895,77.1564626 L106.637563,77.1564626 L116.498507,77.1564626 L122.415073,77.1564626 L132.801934,77.1564626 L134.379685,77.1564626 C136.088916,77.1564626 137.666667,78.5976871 137.666667,80.4319728 Z M137.666667,106.636054 C137.666667,104.801769 136.216156,103.360544 134.370051,103.360544 L119.733078,103.360544 L113.79917,103.360544 L100.348978,103.360544 L93.3601533,103.360544 L79.7780971,103.360544 C77.9319923,103.360544 76.4814815,104.801769 76.4814815,106.636054 C76.4814815,108.47034 77.9319923,109.911565 79.7780971,109.911565 L100.085249,109.911565 L113.931034,109.911565 L134.238186,109.911565 C136.084291,109.911565 137.666667,108.47034 137.666667,106.636054 Z M134.370051,90.2585034 L109.711367,90.2585034 L104.568646,90.2585034 L79.7780971,90.2585034 C77.9319923,90.2585034 76.4814815,91.6997279 76.4814815,93.5340136 C76.4814815,95.3682993 77.9319923,96.8095238 79.7780971,96.8095238 L93.3601533,96.8095238 L101.667625,96.8095238 L112.480524,96.8095238 L119.733078,96.8095238 L134.370051,96.8095238 C136.216156,96.8095238 137.666667,95.3682993 137.666667,93.5340136 C137.666667,91.6997279 136.084291,90.2585034 134.370051,90.2585034 Z M121.257383,123.013605 C122.578206,120.655238 124.163193,118.427891 126.012346,116.462585 L113.06828,116.462585 L101.180872,116.462585 L79.7835391,116.462585 C77.9343868,116.462585 76.4814815,117.90381 76.4814815,119.738095 C76.4814815,121.572381 77.9343868,123.013605 79.7835391,123.013605 L93.3880165,123.013605 L103.426272,123.013605 L110.822881,123.013605 L119.804477,123.013605 L121.257383,123.013605 Z M79.8027797,136.115646 L100.793385,136.115646 L113.680022,136.115646 L117.66558,136.115646 C117.798432,133.888299 118.196987,131.660952 118.728395,129.564626 L107.435981,129.564626 L107.037425,129.564626 L79.8027797,129.564626 C77.9428527,129.564626 76.4814815,131.00585 76.4814815,132.840136 C76.4814815,134.674422 78.0757046,136.115646 79.8027797,136.115646 Z M79.7670555,149.217687 L119.45679,149.217687 C118.668252,147.121361 118.011138,144.894014 117.748292,142.666667 L79.7670555,142.666667 C77.9271341,142.666667 76.4814815,144.107891 76.4814815,145.942177 C76.4814815,147.776463 77.9271341,149.217687 79.7670555,149.217687 Z M62.6419753,79.4164883 L62.6419753,149.109097 C62.6419753,156.867331 68.8162449,163.047619 76.5669237,163.047619 L129.639369,163.047619 C127.274755,161.206682 125.041508,158.971259 123.333732,156.472845 L76.5669237,156.472845 C72.4945331,156.472845 69.2103472,153.185457 69.2103472,149.109097 L69.2103472,81.3889206 L80.9020492,81.3889206 C88.5213606,81.3889206 94.8269976,75.0771371 94.8269976,67.4503988 L94.8269976,56.7992642 L138.440987,56.7992642 C142.513378,56.7992642 145.797563,60.0866514 145.797563,64.1630116 L145.797563,71.6582544 L145.797563,106.76755 C146.717136,106.636054 147.768075,106.636054 148.819015,106.636054 C150.001321,106.636054 151.052261,106.636054 152.234568,106.76755 L152.234568,73.8936778 L152.234568,71.6582544 L152.234568,64.1630116 C152.234568,56.4047778 146.060298,50.2244898 138.309619,50.2244898 L92.7251186,50.2244898 C91.9369139,50.2244898 91.1487093,50.3559853 90.3605047,50.6189763 C89.5723001,50.8819672 88.9154629,51.4079492 88.3899931,51.9339311 L64.4811194,74.9456417 C63.8242822,75.4716236 63.4301799,76.2605965 63.0360776,77.0495695 C62.7733427,77.7070469 62.6419753,78.6275153 62.6419753,79.4164883 Z M173.358025,138.29932 C173.358025,151.614981 162.483561,162.319728 148.95679,162.319728 C135.430019,162.319728 124.555556,151.484435 124.555556,138.29932 C124.555556,125.114204 135.430019,114.278912 148.95679,114.278912 C162.483561,114.278912 173.358025,124.983659 173.358025,138.29932 Z M163.888889,147.834086 C163.622809,147.701842 163.223688,147.569598 162.824567,147.437355 C158.700321,146.511649 155.241276,144.924724 155.241276,144.924724 C154.842156,144.39575 154.576075,143.3378 154.576075,142.808825 C155.507357,141.618632 156.039517,140.031708 156.172558,138.709271 C156.571678,138.973758 157.236879,138.841514 157.90208,136.328884 C158.434241,134.212985 158.168161,133.551767 157.636,133.419523 C159.232482,125.484901 155.507357,125.220414 155.507357,125.220414 C155.507357,125.220414 154.975196,124.162464 153.378714,123.236758 C152.314392,122.57554 150.98399,122.178809 149.121427,122.311052 C148.589267,122.311052 147.924066,122.443296 147.391905,122.57554 C146.726704,122.840027 146.061503,123.104515 145.529342,123.501246 C144.864141,123.897977 144.19894,124.426952 143.666779,125.08817 C142.735498,126.013876 141.937257,127.204069 141.538136,128.790994 C141.139016,130.11343 141.272056,131.435867 141.671177,132.890548 C141.005976,132.890548 140.207734,133.287279 141.005976,135.932153 C141.538136,137.915809 142.070297,138.444783 142.469418,138.444783 C142.735498,139.899464 143.134619,141.486388 144.19894,142.941069 C144.0659,143.470044 143.93286,144.263506 143.533739,144.924724 C143.533739,144.924724 139.941654,146.643892 135.817408,147.701842 C135.418287,147.834086 135.019167,147.966329 134.753086,148.098573 C137.813011,152.727102 143.134619,155.768707 149.254468,155.768707 C155.507357,155.50422 160.828964,152.462615 163.888889,147.834086 Z" id="Shape"></path>
            </g>
        </g>
    </g>
</svg>