<?xml version="1.0" encoding="UTF-8"?>
<svg width="82px" height="111px" viewBox="0 0 82 111" version="1.1" xmlns="http://www.w3.org/2000/svg" xmlns:xlink="http://www.w3.org/1999/xlink">
    <!-- Generator: Sketch 51.1 (57501) - http://www.bohemiancoding.com/sketch -->
    <title>Shape</title>
    <desc>Created with Sketch.</desc>
    <defs></defs>
    <g id="Page-1" stroke="none" stroke-width="1" fill="none" fill-rule="evenodd">
        <g id="Onboarding-2" transform="translate(-150.000000, -112.000000)" fill="#64C7A3" fill-rule="nonzero">
            <g id="Group-2" transform="translate(70.000000, 62.000000)">
                <path d="M120.549383,120.102041 C130.020947,120.102041 137.609609,112.299048 137.609609,102.632653 L137.666667,67.6938776 C137.666667,58.027483 130.020947,50.2244898 120.549383,50.2244898 C111.077819,50.2244898 103.432099,58.027483 103.432099,67.6938776 L103.432099,102.632653 C103.432099,112.299048 111.077819,120.102041 120.549383,120.102041 Z M151.885979,102.632653 C151.885979,120.102041 137.217143,132.330612 121.277778,132.330612 C105.338413,132.330612 90.6695767,120.102041 90.6695767,102.632653 L80.8518519,102.632653 C80.8518519,122.489524 96.5602116,138.910748 115.502646,141.764082 L115.502646,160.863946 L127.05291,160.863946 L127.05291,141.764082 C145.995344,138.96898 161.703704,122.547755 161.703704,102.632653 L151.885979,102.632653 Z" id="Shape"></path>
            </g>
        </g>
    </g>
</svg>